<svg width="28" height="31" viewBox="0 0 28 31" fill="none" xmlns="http://www.w3.org/2000/svg">
<g filter="url(#filter0_d_29_78)">
<path d="M7.025 21.3173C6.99074 21.4639 6.99012 21.6165 7.02319 21.7634C7.05627 21.9104 7.12218 22.0479 7.21598 22.1658C7.30978 22.2836 7.42904 22.3787 7.56482 22.4439C7.7006 22.5091 7.84937 22.5427 8 22.5423C8.19753 22.5423 8.39065 22.4838 8.555 22.3743L14 18.7443L19.445 22.3743C19.6153 22.4873 19.8162 22.5456 20.0206 22.5411C20.225 22.5366 20.4232 22.4696 20.5884 22.3492C20.7536 22.2287 20.878 22.0606 20.9448 21.8673C21.0116 21.6741 21.0176 21.465 20.962 21.2683L19.133 14.8683L23.669 10.7863C23.8143 10.6554 23.918 10.4849 23.9674 10.2958C24.0168 10.1066 24.0097 9.90713 23.9469 9.72199C23.8841 9.53685 23.7684 9.37417 23.6142 9.25408C23.4599 9.13398 23.2739 9.06172 23.079 9.04625L17.378 8.59225L14.911 3.13125C14.8324 2.95536 14.7046 2.80597 14.543 2.70111C14.3814 2.59624 14.193 2.54039 14.0003 2.54028C13.8077 2.54018 13.6191 2.59583 13.4574 2.70051C13.2957 2.8052 13.1678 2.95445 13.089 3.13025L10.622 8.59225L4.921 9.04525C4.72945 9.06043 4.54633 9.13046 4.39355 9.24698C4.24077 9.3635 4.12479 9.52157 4.05949 9.70228C3.99419 9.88299 3.98233 10.0787 4.02534 10.266C4.06835 10.4532 4.1644 10.6241 4.302 10.7583L8.516 14.8653L7.025 21.3173ZM14 5.97125L16.042 10.4923L16.63 10.5393H16.631L20.603 10.8543L17.332 13.7983L17.331 13.8003L16.868 14.2163L17.039 14.8133V14.8163L18.292 19.2013L14 16.3403V5.97125Z" fill="#FFCB45"/>
</g>
<defs>
<filter id="filter0_d_29_78" x="-2" y="0.542236" width="32" height="32" filterUnits="userSpaceOnUse" color-interpolation-filters="sRGB">
<feFlood flood-opacity="0" result="BackgroundImageFix"/>
<feColorMatrix in="SourceAlpha" type="matrix" values="0 0 0 0 0 0 0 0 0 0 0 0 0 0 0 0 0 0 127 0" result="hardAlpha"/>
<feOffset dy="4"/>
<feGaussianBlur stdDeviation="2"/>
<feComposite in2="hardAlpha" operator="out"/>
<feColorMatrix type="matrix" values="0 0 0 0 0 0 0 0 0 0 0 0 0 0 0 0 0 0 0.25 0"/>
<feBlend mode="normal" in2="BackgroundImageFix" result="effect1_dropShadow_29_78"/>
<feBlend mode="normal" in="SourceGraphic" in2="effect1_dropShadow_29_78" result="shape"/>
</filter>
</defs>
</svg>
