<svg width="1294" height="513" viewBox="0 0 1294 513" fill="none" xmlns="http://www.w3.org/2000/svg">
<path d="M0 439.114C0 439.114 22.062 456.43 36.9364 457.966C59.1594 460.261 70.9046 438.218 93.1999 439.114C111.874 439.865 121.363 464.144 140.015 462.841C154.597 461.822 171.797 437.122 176.092 439.114C180.387 441.107 179.528 447.352 176.092 455.945C172.656 464.537 154.319 475.438 140.015 475.983C121.521 476.687 111.703 455.815 93.1999 455.945C70.7762 456.102 59.2967 475.119 36.9364 473.13C22.0601 471.807 0 457.966 0 457.966V439.114Z" fill="#FFAC4B"/>
<path d="M0 476.114C0 476.114 22.062 493.43 36.9364 494.966C59.1594 497.261 70.9046 475.218 93.1999 476.114C111.874 476.865 121.363 501.144 140.015 499.841C154.597 498.822 171.797 474.122 176.092 476.114C180.387 478.107 179.528 484.352 176.092 492.945C172.656 501.537 154.319 512.438 140.015 512.983C121.521 513.687 111.703 492.815 93.1999 492.945C70.7762 493.102 59.2967 512.119 36.9364 510.13C22.0601 508.807 0 494.966 0 494.966V476.114Z" fill="#FFAC4B"/>
<circle cx="754.5" cy="431.5" r="20.5" fill="#FFAC4B"/>
<circle cx="1257" cy="234" r="37" fill="#FFAC4B"/>
<circle cx="863.5" cy="206.5" r="9.5" fill="#FFAC4B"/>
<circle cx="837" cy="27" r="27" fill="#FFAC4B"/>
</svg>
